<?xml version="1.0" standalone="no"?>
<!DOCTYPE svg PUBLIC "-//W3C//DTD SVG 20010904//EN"
 "http://www.w3.org/TR/2001/REC-SVG-20010904/DTD/svg10.dtd">
<svg version="1.0" xmlns="http://www.w3.org/2000/svg"
 width="256.000000pt" height="256.000000pt" viewBox="0 0 256.000000 256.000000"
 preserveAspectRatio="xMidYMid meet">
<metadata>
Created by potrace 1.16, written by Peter Selinger 2001-2019
</metadata>
<g transform="translate(0.000000,256.000000) scale(0.100000,-0.100000)"
fill="#000000" stroke="none">
<path d="M2126 1755 c-15 -14 -32 -25 -37 -25 -6 0 -30 -14 -55 -31 -43 -29
-108 -124 -98 -141 3 -4 0 -8 -6 -8 -6 0 -8 -4 -5 -10 10 -17 67 -11 81 8 51
65 -67 -151 -148 -273 -36 -54 -72 -123 -90 -175 -17 -47 -44 -112 -60 -144
-35 -70 -35 -69 -80 59 -15 44 -28 71 -28 60 -1 -11 -4 -14 -7 -7 -2 6 -20 12
-40 12 -34 0 -34 -1 -28 -32 4 -18 13 -51 21 -72 25 -75 -9 -77 -52 -3 -39 65
-66 134 -143 367 -34 102 -77 216 -96 253 -18 38 -28 64 -22 59 18 -14 75 -20
73 -8 -8 46 -97 106 -158 106 -49 0 -134 -27 -196 -61 l-53 -30 -40 34 c-22
19 -60 40 -85 47 -59 17 -115 -4 -189 -72 -74 -68 -133 -159 -271 -426 -98
-189 -120 -239 -135 -311 -10 -47 -18 -100 -19 -118 l0 -31 83 5 c90 6 137 24
178 70 24 26 159 262 159 278 0 4 -22 5 -49 3 l-49 -3 20 39 c66 129 211 321
311 411 l62 57 16 -36 c15 -33 16 -34 33 -18 16 16 18 16 27 -1 8 -14 14 -15
24 -7 23 19 75 -83 170 -337 72 -192 127 -295 192 -360 l53 -53 -35 0 c-42 0
-81 18 -114 54 -29 30 -86 35 -117 10 -10 -8 -14 -13 -8 -10 12 6 48 -27 39
-36 -3 -3 2 -11 12 -19 15 -12 16 -12 10 4 -4 11 -3 16 3 12 6 -3 10 -14 11
-23 0 -9 3 -12 5 -5 4 8 13 9 32 2 29 -9 617 -18 601 -9 -5 4 8 13 29 23 l37
16 -24 -19 c-13 -11 -19 -20 -15 -20 5 0 23 12 39 26 17 14 24 22 16 18 -10
-5 -12 -3 -7 5 5 7 14 10 21 7 7 -2 26 10 41 27 l29 32 -30 -25 c-21 -18 -19
-12 10 18 40 43 59 56 34 25 -11 -15 -10 -14 9 1 23 20 30 32 12 21 -5 -3 -10
-2 -10 3 0 11 40 48 47 44 3 -2 8 0 11 4 4 4 1 4 -5 0 -7 -4 -13 -3 -13 2 0
13 25 33 33 26 3 -3 10 5 17 18 11 23 11 23 -6 3 -17 -21 -17 -17 3 32 4 11 3
14 -5 9 -20 -12 -13 11 23 78 l36 64 -25 -2 c-14 -2 -23 0 -21 5 3 4 1 9 -5
11 -11 3 96 238 178 390 29 52 49 98 45 101 -3 4 0 8 8 8 29 3 -78 18 -132 18
-47 1 -61 -3 -83 -24z"/>
</g>
</svg>
